<?xml version="1.0" encoding="UTF-8"?>
<svg version="1.1" xmlns="http://www.w3.org/2000/svg" width="1637" height="381">
<path d="M0 0 C54.78 0 109.56 0 166 0 C166.2165625 23.5434375 166.2165625 23.5434375 166.4375 47.5625 C166.50122803 52.49002197 166.56495605 57.41754395 166.63061523 62.49438477 C166.66223145 68.5838623 166.66223145 68.5838623 166.66810608 71.44859314 C166.67874665 73.41888039 166.70313766 75.38912654 166.73902893 77.3591156 C167.06416366 96.17085582 167.06416366 96.17085582 163.15741158 102.97686577 C162.59428166 103.99946589 162.59428166 103.99946589 162.01977539 105.04272461 C161.41032766 106.13927085 160.80087994 107.23581709 160.1729641 108.365592 C158.59843178 111.93413764 158.59843178 111.93413764 160.20841217 115.09546185 C161.2247385 116.67456451 161.2247385 116.67456451 162.26159668 118.28556824 C167.14411509 126.82954373 166.94419236 134.76310964 166.79467773 144.38818359 C166.79269867 146.19318057 166.79382041 147.99818316 166.79777527 149.80317688 C166.79976802 154.66013634 166.75887154 159.51586371 166.70975757 164.37253904 C166.66573358 169.46400271 166.6618657 174.5555006 166.65357971 179.64712524 C166.63190017 189.26944711 166.5745624 198.89120635 166.50413328 208.51328146 C166.42564958 219.47583288 166.38734309 230.43841243 166.35226524 241.40117526 C166.27927239 263.93443832 166.15487468 286.46716371 166 309 C155.44 309 144.88 309 134 309 C134 248.94 134 188.88 134 127 C121.46 127 108.92 127 96 127 C96 204.22 96 281.44 96 361 C64.32 361 32.64 361 0 361 C0 336.58 0 312.16 0 287 C22.7109375 287 22.7109375 287 27.64453125 291.5 C31.54081475 296.50392262 32.12405616 299.59868965 32.09765625 305.85546875 C32.09515869 307.06614014 32.09266113 308.27681152 32.09008789 309.52416992 C32.08098389 311.06306885 32.07187988 312.60196777 32.0625 314.1875 C32.041875 319.075625 32.02125 323.96375 32 329 C42.56 329 53.12 329 64 329 C64 242.21 64 155.42 64 66 C74.56 66 85.12 66 96 66 C96 75.9 96 85.8 96 96 C108.54 96 121.08 96 134 96 C134 74.88 134 53.76 134 32 C100.34 32 66.68 32 32 32 C32 41.57 32 51.14 32 61 C28 69 28 69 22 73 C14.74 73 7.48 73 0 73 C0 48.91 0 24.82 0 0 Z " fill="#D8D1A8" transform="translate(8,11)"/>
<path d="M0 0 C54.78 0 109.56 0 166 0 C166 24.09 166 48.18 166 73 C144 73 144 73 137 68 C134 61 134 61 134 32 C100.34 32 66.68 32 32 32 C32 53.12 32 74.24 32 96 C44.54 96 57.08 96 70 96 C70 86.1 70 76.2 70 66 C80.56 66 91.12 66 102 66 C102 86.13 102 106.26 102 127 C78.9 127 55.8 127 32 127 C32 204.22 32 281.44 32 361 C-0.01 361 -32.02 361 -65 361 C-65 350.44 -65 339.88 -65 329 C-43.55 329 -22.1 329 0 329 C0 220.43 0 111.86 0 0 Z " fill="#D8D1A8" transform="translate(207,11)"/>
<path d="M0 0 C10.56 0 21.12 0 32 0 C32 51.15 32 102.3 32 155 C21.44 155 10.88 155 0 155 C0 103.85 0 52.7 0 0 Z " fill="#D8D1A8" transform="translate(277,165)"/>
<path d="M0 0 C0 24.42 0 48.84 0 74 C-31.68 74 -63.36 74 -96 74 C-96 63.44 -96 52.88 -96 42 C-73.89 42 -51.78 42 -29 42 C-29 32.1 -29 22.2 -29 12 C-21.49262853 -3.01474294 -18.57241882 0 0 0 Z " fill="#D8D1A8" transform="translate(373,298)"/>
<path d="M0 0 C14.19 0 28.38 0 43 0 C43 1.98 43 3.96 43 6 C33.43 6 23.86 6 14 6 C25.48214089 21.35189206 25.48214089 21.35189206 37.14453125 36.56640625 C38.49104507 38.33246543 39.76810784 40.15216176 41 42 C44.465 35.565 44.465 35.565 48 29 C50.64 29 53.28 29 56 29 C53.0922831 36.04287168 50.1385602 43.05659307 47 50 C47.71027344 50.91523438 48.42054688 51.83046875 49.15234375 52.7734375 C50.08081828 53.97388942 51.00919882 55.17441403 51.9375 56.375 C52.40607422 56.97828125 52.87464844 57.5815625 53.35742188 58.203125 C56.88671875 62.7734375 56.88671875 62.7734375 58 65 C54.89441326 65.43478214 52.09038203 65.59797636 49 65 C46.5001159 62.9849419 44.74467257 60.68200647 43 58 C39.44961249 59.70768079 36.20601621 61.74198184 32.90234375 63.87890625 C27.21648116 67.22971234 20.36380727 66.49441344 14 66 C7.76312578 64.37469212 3.53628392 60.27383519 0 55 C-2.01962336 48.94112991 -2.08708072 41.5577647 0.4375 35.625 C3.09836382 31.07302225 7.3285007 28.27666661 12 26 C14.78515625 25.33984375 14.78515625 25.33984375 17 25 C14.15820407 20.63510694 11.13801549 16.48240818 7.9375 12.375 C6.29055467 10.25085654 4.6450286 8.12562961 3 6 C2.40316406 5.24976563 1.80632813 4.49953125 1.19140625 3.7265625 C0 2 0 2 0 0 Z M8.5625 37.3125 C6.52617537 40.81497837 5.8173425 43.99675646 6 48 C7.27136603 52.48717421 8.33144946 54.47073082 12 57.375 C16.57498571 59.85311726 19.81498376 60.42500133 25 60 C31.03142712 57.99715418 34.12283645 54.89676365 38 50 C37.58113525 49.4652002 37.16227051 48.93040039 36.73071289 48.37939453 C34.83950824 45.96266558 32.95097472 43.54386266 31.0625 41.125 C30.40314453 40.28324219 29.74378906 39.44148438 29.06445312 38.57421875 C28.43603516 37.76855469 27.80761719 36.96289062 27.16015625 36.1328125 C26.28822632 35.01737061 26.28822632 35.01737061 25.39868164 33.87939453 C24 32 24 32 23 30 C16.85901343 30 12.93095889 33.16806465 8.5625 37.3125 Z " fill="#FFFFFF" transform="translate(940,145)"/>
<path d="M0 0 C35.26315789 0 35.26315789 0 42.8125 6.375 C47.57562789 12.09075347 49.16686036 17.63589625 49 25 C47.91805214 31.44966978 44.99610563 36.75743923 40 41 C37.7040574 42.41557701 35.36899898 43.70603255 33 45 C33.43868408 45.46374023 33.87736816 45.92748047 34.3293457 46.40527344 C36.32584839 48.51819259 38.31919793 50.63406135 40.3125 52.75 C41.00279297 53.47960937 41.69308594 54.20921875 42.40429688 54.9609375 C43.40493164 56.02441406 43.40493164 56.02441406 44.42578125 57.109375 C45.03848877 57.75874023 45.65119629 58.40810547 46.2824707 59.07714844 C47.97886114 60.97633409 49.50372016 62.94086255 51 65 C41.83263118 66.21332823 41.83263118 66.21332823 37.734375 63.5 C35.67623289 61.42565204 33.82944577 59.27810477 32 57 C30.73273829 55.55935037 29.46205214 54.12170377 28.1875 52.6875 C27.64480469 52.05199219 27.10210938 51.41648438 26.54296875 50.76171875 C26.03378906 50.18035156 25.52460937 49.59898437 25 49 C24.5875 48.443125 24.175 47.88625 23.75 47.3125 C19.72194063 44.29145547 12.72479467 45.2167337 8 45 C8 51.6 8 58.2 8 65 C5.36 65 2.72 65 0 65 C0 43.55 0 22.1 0 0 Z M8 7 C8 17.23 8 27.46 8 38 C12.4859375 38.0928125 12.4859375 38.0928125 17.0625 38.1875 C17.99070557 38.21481201 18.91891113 38.24212402 19.87524414 38.27026367 C26.76491576 38.33872606 31.37182138 37.16094687 36.8125 32.6875 C40.23994066 28.47664433 41 25.4735225 41 20.0625 C40.23686929 15.32927263 37.66543104 12.00046346 34 9 C30.4999775 7.35415831 27.77350756 6.75738028 23.91796875 6.8046875 C23.0777417 6.80968262 22.23751465 6.81467773 21.37182617 6.81982422 C19.79558472 6.84713623 19.79558472 6.84713623 18.1875 6.875 C13.1446875 6.936875 13.1446875 6.936875 8 7 Z " fill="#FFFFFF" transform="translate(1154,145)"/>
<path d="M0 0 C35.26315789 0 35.26315789 0 42.8125 6.375 C47.57562789 12.09075347 49.16686036 17.63589625 49 25 C47.91805214 31.44966978 44.99610563 36.75743923 40 41 C37.7040574 42.41557701 35.36899898 43.70603255 33 45 C33.43868408 45.46374023 33.87736816 45.92748047 34.3293457 46.40527344 C36.32584839 48.51819259 38.31919793 50.63406135 40.3125 52.75 C41.00279297 53.47960937 41.69308594 54.20921875 42.40429688 54.9609375 C43.40493164 56.02441406 43.40493164 56.02441406 44.42578125 57.109375 C45.03848877 57.75874023 45.65119629 58.40810547 46.2824707 59.07714844 C47.97886114 60.97633409 49.50372016 62.94086255 51 65 C41.83263118 66.21332823 41.83263118 66.21332823 37.734375 63.5 C35.67623289 61.42565204 33.82944577 59.27810477 32 57 C30.73273829 55.55935037 29.46205214 54.12170377 28.1875 52.6875 C27.64480469 52.05199219 27.10210937 51.41648438 26.54296875 50.76171875 C26.03378906 50.18035156 25.52460938 49.59898437 25 49 C24.5875 48.443125 24.175 47.88625 23.75 47.3125 C19.72194063 44.29145547 12.72479467 45.2167337 8 45 C8 51.6 8 58.2 8 65 C5.36 65 2.72 65 0 65 C0 43.55 0 22.1 0 0 Z M8 7 C8 17.23 8 27.46 8 38 C12.4859375 38.0928125 12.4859375 38.0928125 17.0625 38.1875 C17.99070557 38.21481201 18.91891113 38.24212402 19.87524414 38.27026367 C26.76491576 38.33872606 31.37182138 37.16094687 36.8125 32.6875 C40.23994066 28.47664433 41 25.4735225 41 20.0625 C40.23686929 15.32927263 37.66543104 12.00046346 34 9 C30.4999775 7.35415831 27.77350756 6.75738028 23.91796875 6.8046875 C23.0777417 6.80968262 22.23751465 6.81467773 21.37182617 6.81982422 C19.79558472 6.84713623 19.79558472 6.84713623 18.1875 6.875 C13.1446875 6.936875 13.1446875 6.936875 8 7 Z " fill="#FFFFFF" transform="translate(462,145)"/>
<path d="M0 0 C35.88235294 0 35.88235294 0 47 9 C53.84259589 15.84259589 56.41681027 22.70512529 56.625 32.3125 C56.55918531 41.29767832 54.05889884 48.22992657 48.171875 55.1484375 C34.90771609 67.9273223 17.43676242 65 0 65 C0 43.55 0 22.1 0 0 Z M8 7 C8 23.83 8 40.66 8 58 C25.54474398 58.58076855 25.54474398 58.58076855 40.4375 51.6875 C46.71486956 45.1039173 48.32144391 38.71159706 48.21484375 29.81640625 C47.76423653 23.90935526 45.64751921 18.83648485 41.65625 14.3828125 C31.49337896 5.89777395 21.13062912 7 8 7 Z " fill="#FFFFFF" transform="translate(1446,145)"/>
<path d="M0 0 C35.88235294 0 35.88235294 0 47 9 C53.84259589 15.84259589 56.41681027 22.70512529 56.625 32.3125 C56.55918531 41.29767832 54.05889884 48.22992657 48.171875 55.1484375 C34.90771609 67.9273223 17.43676242 65 0 65 C0 43.55 0 22.1 0 0 Z M8 7 C8 23.83 8 40.66 8 58 C25.54474398 58.58076855 25.54474398 58.58076855 40.4375 51.6875 C46.71486956 45.1039173 48.32144391 38.71159706 48.21484375 29.81640625 C47.76423653 23.90935526 45.64751921 18.83648485 41.65625 14.3828125 C31.49337896 5.89777395 21.13062912 7 8 7 Z " fill="#FFFFFF" transform="translate(782,145)"/>
<path d="M0 0 C7 0 7 0 8.90527344 1.33837891 C9.38512695 1.96147949 9.86498047 2.58458008 10.359375 3.2265625 C10.91197998 3.92168945 11.46458496 4.61681641 12.03393555 5.33300781 C12.60023682 6.08936523 13.16653809 6.84572266 13.75 7.625 C14.35561768 8.39682617 14.96123535 9.16865234 15.58520508 9.96386719 C17.40939781 12.29503338 19.20543568 14.64599251 21 17 C22.44327399 18.85242356 23.89385675 20.6988671 25.34619141 22.54418945 C26.23809379 23.67846721 27.12711208 24.81501891 28.01318359 25.95385742 C31.61639237 30.57292829 35.37034344 35.05121203 39.2097168 39.47558594 C42.41677436 43.1997533 45.11085637 46.95519892 48 51 C48.33 34.17 48.66 17.34 49 0 C51.31 0 53.62 0 56 0 C56 21.45 56 42.9 56 65 C49 65 49 65 47.09472656 63.66162109 C46.61487305 63.03852051 46.13501953 62.41541992 45.640625 61.7734375 C45.08802002 61.07831055 44.53541504 60.38318359 43.96606445 59.66699219 C43.11661255 58.53245605 43.11661255 58.53245605 42.25 57.375 C41.64438232 56.60317383 41.03876465 55.83134766 40.41479492 55.03613281 C38.59060219 52.70496662 36.79456432 50.35400749 35 48 C33.55672601 46.14757644 32.10614325 44.3011329 30.65380859 42.45581055 C29.76190621 41.32153279 28.87288792 40.18498109 27.98681641 39.04614258 C24.38360763 34.42707171 20.62965656 29.94878797 16.7902832 25.52441406 C13.58322564 21.8002467 10.88914363 18.04480108 8 14 C7.67 30.83 7.34 47.66 7 65 C4.69 65 2.38 65 0 65 C0 43.55 0 22.1 0 0 Z " fill="#FFFFFF" transform="translate(1370,145)"/>
<path d="M0 0 C7 0 7 0 8.90527344 1.33837891 C9.38512695 1.96147949 9.86498047 2.58458008 10.359375 3.2265625 C10.91197998 3.92168945 11.46458496 4.61681641 12.03393555 5.33300781 C12.60023682 6.08936523 13.16653809 6.84572266 13.75 7.625 C14.35561768 8.39682617 14.96123535 9.16865234 15.58520508 9.96386719 C17.40939781 12.29503338 19.20543568 14.64599251 21 17 C22.44327399 18.85242356 23.89385675 20.6988671 25.34619141 22.54418945 C26.23809379 23.67846721 27.12711208 24.81501891 28.01318359 25.95385742 C31.61639237 30.57292829 35.37034344 35.05121203 39.2097168 39.47558594 C42.41677436 43.1997533 45.11085637 46.95519892 48 51 C48.33 34.17 48.66 17.34 49 0 C51.31 0 53.62 0 56 0 C56 21.45 56 42.9 56 65 C49 65 49 65 47.09472656 63.66162109 C46.61487305 63.03852051 46.13501953 62.41541992 45.640625 61.7734375 C45.08802002 61.07831055 44.53541504 60.38318359 43.96606445 59.66699219 C43.11661255 58.53245605 43.11661255 58.53245605 42.25 57.375 C41.64438232 56.60317383 41.03876465 55.83134766 40.41479492 55.03613281 C38.59060219 52.70496662 36.79456432 50.35400749 35 48 C33.55672601 46.14757644 32.10614325 44.3011329 30.65380859 42.45581055 C29.76190621 41.32153279 28.87288792 40.18498109 27.98681641 39.04614258 C24.38360763 34.42707171 20.62965656 29.94878797 16.7902832 25.52441406 C13.58322564 21.8002467 10.88914363 18.04480108 8 14 C7.67 30.83 7.34 47.66 7 65 C4.69 65 2.38 65 0 65 C0 43.55 0 22.1 0 0 Z " fill="#FFFFFF" transform="translate(1221,145)"/>
<path d="M0 0 C7 0 7 0 8.90527344 1.33837891 C9.38512695 1.96147949 9.86498047 2.58458008 10.359375 3.2265625 C10.91197998 3.92168945 11.46458496 4.61681641 12.03393555 5.33300781 C12.60023682 6.08936523 13.16653809 6.84572266 13.75 7.625 C14.35561768 8.39682617 14.96123535 9.16865234 15.58520508 9.96386719 C17.40939781 12.29503338 19.20543568 14.64599251 21 17 C22.44327399 18.85242356 23.89385675 20.6988671 25.34619141 22.54418945 C26.23809379 23.67846721 27.12711208 24.81501891 28.01318359 25.95385742 C31.61639237 30.57292829 35.37034344 35.05121203 39.2097168 39.47558594 C42.41677436 43.1997533 45.11085637 46.95519892 48 51 C48.33 34.17 48.66 17.34 49 0 C51.31 0 53.62 0 56 0 C56 21.45 56 42.9 56 65 C49 65 49 65 47.09472656 63.66162109 C46.61487305 63.03852051 46.13501953 62.41541992 45.640625 61.7734375 C45.08802002 61.07831055 44.53541504 60.38318359 43.96606445 59.66699219 C43.11661255 58.53245605 43.11661255 58.53245605 42.25 57.375 C41.64438232 56.60317383 41.03876465 55.83134766 40.41479492 55.03613281 C38.59060219 52.70496662 36.79456432 50.35400749 35 48 C33.55672601 46.14757644 32.10614325 44.3011329 30.65380859 42.45581055 C29.76190621 41.32153279 28.87288792 40.18498109 27.98681641 39.04614258 C24.38360763 34.42707171 20.62965656 29.94878797 16.7902832 25.52441406 C13.58322564 21.8002467 10.88914363 18.04480108 8 14 C7.67 30.83 7.34 47.66 7 65 C4.69 65 2.38 65 0 65 C0 43.55 0 22.1 0 0 Z " fill="#FFFFFF" transform="translate(705,145)"/>
<path d="M0 0 C1.134375 0.020625 2.26875 0.04125 3.4375 0.0625 C8.18125099 8.98791329 11.96388936 18.29202268 15.8125 27.625 C16.45279714 29.17005779 17.0934205 30.71498042 17.734375 32.25976562 C19.00459615 35.32290025 20.27088879 38.38761438 21.53417969 41.45361328 C22.83824133 44.61730164 24.1526269 47.77645603 25.47363281 50.93310547 C25.79949371 51.71515854 26.12535461 52.49721161 26.46109009 53.30296326 C27.08347317 54.79651722 27.70850077 56.28897269 28.33651733 57.78016663 C30.4375 62.83693565 30.4375 62.83693565 30.4375 65.0625 C27.7975 65.0625 25.1575 65.0625 22.4375 65.0625 C21.62251438 63.4595947 20.81060073 61.85512722 20 60.25 C19.54753906 59.35667969 19.09507813 58.46335938 18.62890625 57.54296875 C17.4375 55.0625 17.4375 55.0625 16.4375 52.0625 C5.5475 52.0625 -5.3425 52.0625 -16.5625 52.0625 C-18.2125 56.0225 -19.8625 59.9825 -21.5625 64.0625 C-22.5625 65.0625 -22.5625 65.0625 -24.41015625 65.16015625 C-26.4609375 65.12760417 -28.51171875 65.09505208 -30.5625 65.0625 C-28.66529063 58.24852824 -26.33927136 51.79795988 -23.5078125 45.3203125 C-23.1243869 44.43068817 -22.7409613 43.54106384 -22.34591675 42.6244812 C-21.13160762 39.80988865 -19.90983007 36.99861712 -18.6875 34.1875 C-17.47665622 31.38896573 -16.2673689 28.58976284 -15.05828857 25.79046631 C-14.28197815 23.99401652 -13.5046938 22.19798725 -12.72637939 20.40240479 C-10.2313734 14.64076256 -7.79529571 8.86002953 -5.43310547 3.04248047 C-3.96794708 -0.28966607 -3.99995554 0.07017466 0 0 Z M-0.5625 10.0625 C-2.41834011 14.58136436 -4.26963411 19.1020535 -6.11669922 23.62451172 C-6.74597884 25.16343664 -7.37650811 26.70185118 -8.00830078 28.23974609 C-8.91505984 30.44756917 -9.81734123 32.65717556 -10.71875 34.8671875 C-11.00310913 35.55682587 -11.28746826 36.24646423 -11.58044434 36.95700073 C-13.06227165 40.39801611 -13.06227165 40.39801611 -13.5625 44.0625 C-4.6525 44.0625 4.2575 44.0625 13.4375 44.0625 C11.6946399 38.8339197 10.00545432 33.79599708 7.95703125 28.71484375 C7.51552734 27.61591797 7.07402344 26.51699219 6.61914062 25.38476562 C6.16732422 24.26779297 5.71550781 23.15082031 5.25 22 C4.78658203 20.84822266 4.32316406 19.69644531 3.84570312 18.50976562 C2.7120028 15.69304626 1.57588499 12.87732853 0.4375 10.0625 C0.1075 10.0625 -0.2225 10.0625 -0.5625 10.0625 Z " fill="#FFFFFF" transform="translate(1323.5625,144.9375)"/>
<path d="M0 0 C13.86 0 27.72 0 42 0 C42 2.31 42 4.62 42 7 C30.78 7 19.56 7 8 7 C8 13.93 8 20.86 8 28 C18.89 28 29.78 28 41 28 C41 30.31 41 32.62 41 35 C30.11 35 19.22 35 8 35 C8 42.59 8 50.18 8 58 C19.55 58 31.1 58 43 58 C43 60.31 43 62.62 43 65 C28.81 65 14.62 65 0 65 C0 43.55 0 22.1 0 0 Z " fill="#FFFFFF" transform="translate(1520,145)"/>
<path d="M0 0 C13.86 0 27.72 0 42 0 C42 2.31 42 4.62 42 7 C30.78 7 19.56 7 8 7 C8 13.93 8 20.86 8 28 C18.89 28 29.78 28 41 28 C41 30.31 41 32.62 41 35 C30.11 35 19.22 35 8 35 C8 42.59 8 50.18 8 58 C19.55 58 31.1 58 43 58 C43 60.31 43 62.62 43 65 C28.81 65 14.62 65 0 65 C0 43.55 0 22.1 0 0 Z " fill="#FFFFFF" transform="translate(1096,145)"/>
<path d="M0 0 C13.86 0 27.72 0 42 0 C42 2.31 42 4.62 42 7 C30.78 7 19.56 7 8 7 C8 13.93 8 20.86 8 28 C18.89 28 29.78 28 41 28 C41 30.31 41 32.62 41 35 C30.11 35 19.22 35 8 35 C8 42.59 8 50.18 8 58 C19.55 58 31.1 58 43 58 C43 60.31 43 62.62 43 65 C28.81 65 14.62 65 0 65 C0 43.55 0 22.1 0 0 Z " fill="#FFFFFF" transform="translate(855,145)"/>
<path d="M0 0 C13.86 0 27.72 0 42 0 C42 2.31 42 4.62 42 7 C30.78 7 19.56 7 8 7 C8 13.93 8 20.86 8 28 C18.89 28 29.78 28 41 28 C41 30.31 41 32.62 41 35 C30.11 35 19.22 35 8 35 C8 42.59 8 50.18 8 58 C19.55 58 31.1 58 43 58 C43 60.31 43 62.62 43 65 C28.81 65 14.62 65 0 65 C0 43.55 0 22.1 0 0 Z " fill="#FFFFFF" transform="translate(646,145)"/>
<path d="M0 0 C13.86 0 27.72 0 42 0 C42 2.31 42 4.62 42 7 C30.78 7 19.56 7 8 7 C8 13.93 8 20.86 8 28 C18.89 28 29.78 28 41 28 C41 30.31 41 32.62 41 35 C30.11 35 19.22 35 8 35 C8 42.59 8 50.18 8 58 C19.55 58 31.1 58 43 58 C43 60.31 43 62.62 43 65 C28.81 65 14.62 65 0 65 C0 43.55 0 22.1 0 0 Z " fill="#FFFFFF" transform="translate(528,145)"/>
<path d="M0 0 C1.20269531 -0.02578125 2.40539063 -0.0515625 3.64453125 -0.078125 C8.72704314 0.39258172 11.96233111 2.25276951 15.875 5.4375 C18.88565005 9.09910141 21.1875 13.36358587 21.1875 18.25 C18.5475 18.25 15.9075 18.25 13.1875 18.25 C12.9915625 17.70730469 12.795625 17.16460937 12.59375 16.60546875 C10.93040298 12.62634119 9.56513226 9.90197398 5.5 8.125 C0.89254141 6.77900086 -3.4195804 7.39578936 -7.8125 9.25 C-10.20958985 11.22021084 -10.75877604 12.05989985 -11.625 15.125 C-11.84239406 18.74823437 -11.87208792 20.23983305 -9.8125 23.25 C-5.34399914 26.08473905 -0.1862588 27.45240461 4.82861328 29.00415039 C12.01394142 31.2527708 18.12431812 33.35100706 22.328125 40.07421875 C24.35462243 45.20494178 24.09576097 51.43300785 22.41796875 56.63671875 C19.818151 61.45970221 16.17079119 64.20853907 11.203125 66.40234375 C3.99507474 68.42844078 -4.49553566 68.74099535 -11.4375 65.625 C-18.20965418 61.40893004 -20.78864278 55.65435567 -22.8125 48.25 C-17.63936444 47.54855789 -17.63936444 47.54855789 -14.8125 48.25 C-13.16281785 50.13221713 -12.12168208 52.06871836 -10.9453125 54.2734375 C-9.3393013 57.07565015 -7.79939327 58.06913522 -4.8125 59.25 C1.32381248 60.65833401 5.62799846 60.30453073 11.1875 57.25 C13.54508856 55.3344593 14.06246333 54.1078465 14.49609375 51.1328125 C14.81923622 46.25347743 14.81923622 46.25347743 12.4765625 42.09375 C10.03853904 40.13001779 8.08704339 39.22716895 5.125 38.25 C4.16078125 37.91871094 3.1965625 37.58742187 2.203125 37.24609375 C0.21459195 36.58925965 -1.77497329 35.93554113 -3.765625 35.28515625 C-15.44504463 31.31223892 -15.44504463 31.31223892 -18.87109375 25.43359375 C-21.09862451 20.37462389 -21.1052819 16.59349852 -19.8125 11.25 C-15.44790346 2.84411036 -9.09628524 0.11624646 0 0 Z " fill="#FFFFFF" transform="translate(1597.8125,143.75)"/>
<path d="M0 0 C1.20269531 -0.02578125 2.40539062 -0.0515625 3.64453125 -0.078125 C8.72704314 0.39258172 11.96233111 2.25276951 15.875 5.4375 C18.88565005 9.09910141 21.1875 13.36358587 21.1875 18.25 C18.5475 18.25 15.9075 18.25 13.1875 18.25 C12.9915625 17.70730469 12.795625 17.16460937 12.59375 16.60546875 C10.93040298 12.62634119 9.56513226 9.90197398 5.5 8.125 C0.89254141 6.77900086 -3.4195804 7.39578936 -7.8125 9.25 C-10.20958985 11.22021084 -10.75877604 12.05989985 -11.625 15.125 C-11.84239406 18.74823437 -11.87208792 20.23983305 -9.8125 23.25 C-5.34399914 26.08473905 -0.1862588 27.45240461 4.82861328 29.00415039 C12.01394142 31.2527708 18.12431812 33.35100706 22.328125 40.07421875 C24.35462243 45.20494178 24.09576097 51.43300785 22.41796875 56.63671875 C19.818151 61.45970221 16.17079119 64.20853907 11.203125 66.40234375 C3.99507474 68.42844078 -4.49553566 68.74099535 -11.4375 65.625 C-18.20965418 61.40893004 -20.78864278 55.65435567 -22.8125 48.25 C-17.63936444 47.54855789 -17.63936444 47.54855789 -14.8125 48.25 C-13.16281785 50.13221713 -12.12168208 52.06871836 -10.9453125 54.2734375 C-9.3393013 57.07565015 -7.79939327 58.06913522 -4.8125 59.25 C1.32381248 60.65833401 5.62799846 60.30453073 11.1875 57.25 C13.54508856 55.3344593 14.06246333 54.1078465 14.49609375 51.1328125 C14.81923622 46.25347743 14.81923622 46.25347743 12.4765625 42.09375 C10.03853904 40.13001779 8.08704339 39.22716895 5.125 38.25 C4.16078125 37.91871094 3.1965625 37.58742187 2.203125 37.24609375 C0.21459195 36.58925965 -1.77497329 35.93554113 -3.765625 35.28515625 C-15.44504463 31.31223892 -15.44504463 31.31223892 -18.87109375 25.43359375 C-21.09862451 20.37462389 -21.1052819 16.59349852 -19.8125 11.25 C-15.44790346 2.84411036 -9.09628524 0.11624646 0 0 Z " fill="#FFFFFF" transform="translate(605.8125,143.75)"/>
<path d="M0 0 C13.2 0 26.4 0 40 0 C40 2.31 40 4.62 40 7 C29.44 7 18.88 7 8 7 C8 14.26 8 21.52 8 29 C18.56 29 29.12 29 40 29 C40 31.31 40 33.62 40 36 C29.44 36 18.88 36 8 36 C8 45.57 8 55.14 8 65 C5.36 65 2.72 65 0 65 C0 43.55 0 22.1 0 0 Z " fill="#FFFFFF" transform="translate(1040,145)"/>
<path d="M0 0 C15.26785714 -0.66964286 15.26785714 -0.66964286 18.8125 2.25 C22.30418597 6.63954808 23.47185428 9.15994636 23.3203125 14.97265625 C22.67084851 19.08328807 20.1998458 21.8001542 17.34375 24.65625 C14.0352175 26.55314197 10.94343759 26.32259661 7.25 26.1875 C4.8575 26.125625 2.465 26.06375 0 26 C0 17.42 0 8.84 0 0 Z M3 2 C3 9.26 3 16.52 3 24 C11.75644103 24.63053087 11.75644103 24.63053087 18 21 C20.81725233 16.7741215 20.79958384 12.96375312 20 8 C17.80977082 5.17575712 16.16982793 3.58491397 13 2 C9.7 2 6.4 2 3 2 Z " fill="#D8D1A8" transform="translate(1048,249)"/>
<path d="M0 0 C15.26785714 -0.66964286 15.26785714 -0.66964286 18.8125 2.25 C22.30418597 6.63954808 23.47185428 9.15994636 23.3203125 14.97265625 C22.67084851 19.08328807 20.1998458 21.8001542 17.34375 24.65625 C14.0352175 26.55314197 10.94343759 26.32259661 7.25 26.1875 C4.8575 26.125625 2.465 26.06375 0 26 C0 17.42 0 8.84 0 0 Z M3 2 C3 9.26 3 16.52 3 24 C11.75644103 24.63053087 11.75644103 24.63053087 18 21 C20.81725233 16.7741215 20.79958384 12.96375312 20 8 C17.80977082 5.17575712 16.16982793 3.58491397 13 2 C9.7 2 6.4 2 3 2 Z " fill="#D8D1A8" transform="translate(876,249)"/>
<path d="M0 0 C15.26785714 -0.66964286 15.26785714 -0.66964286 18.8125 2.25 C22.30418597 6.63954808 23.47185428 9.15994636 23.3203125 14.97265625 C22.67084851 19.08328807 20.1998458 21.8001542 17.34375 24.65625 C14.0352175 26.55314197 10.94343759 26.32259661 7.25 26.1875 C4.8575 26.125625 2.465 26.06375 0 26 C0 17.42 0 8.84 0 0 Z M3 2 C3 9.26 3 16.52 3 24 C11.75644103 24.63053087 11.75644103 24.63053087 18 21 C20.81725233 16.7741215 20.79958384 12.96375312 20 8 C17.80977082 5.17575712 16.16982793 3.58491397 13 2 C9.7 2 6.4 2 3 2 Z " fill="#D8D1A8" transform="translate(759,249)"/>
<path d="M0 0 C15.26785714 -0.66964286 15.26785714 -0.66964286 18.8125 2.25 C22.30418597 6.63954808 23.47185428 9.15994636 23.3203125 14.97265625 C22.67084851 19.08328807 20.1998458 21.8001542 17.34375 24.65625 C14.0352175 26.55314197 10.94343759 26.32259661 7.25 26.1875 C4.8575 26.125625 2.465 26.06375 0 26 C0 17.42 0 8.84 0 0 Z M3 2 C3 9.26 3 16.52 3 24 C11.75644103 24.63053087 11.75644103 24.63053087 18 21 C20.81725233 16.7741215 20.79958384 12.96375312 20 8 C17.80977082 5.17575712 16.16982793 3.58491397 13 2 C9.7 2 6.4 2 3 2 Z " fill="#D8D1A8" transform="translate(676,249)"/>
<path d="M0 0 C15.26785714 -0.66964286 15.26785714 -0.66964286 18.8125 2.25 C22.30418597 6.63954808 23.47185428 9.15994636 23.3203125 14.97265625 C22.67084851 19.08328807 20.1998458 21.8001542 17.34375 24.65625 C14.0352175 26.55314197 10.94343759 26.32259661 7.25 26.1875 C4.8575 26.125625 2.465 26.06375 0 26 C0 17.42 0 8.84 0 0 Z M3 2 C3 9.26 3 16.52 3 24 C11.75644103 24.63053087 11.75644103 24.63053087 18 21 C20.81725233 16.7741215 20.79958384 12.96375312 20 8 C17.80977082 5.17575712 16.16982793 3.58491397 13 2 C9.7 2 6.4 2 3 2 Z " fill="#D8D1A8" transform="translate(607,249)"/>
<path d="M0 0 C3.85544798 1.99657127 5.59805092 3.39707638 8 7 C9.21321535 12.25726651 9.07655548 15.99738906 7 21 C2.22475963 25.53647835 -1.03846979 26.37141318 -7.45703125 26.26953125 C-11.31632739 25.86048143 -13.23532519 24.69724372 -16 22 C-18.47088274 18.02548399 -19.40879425 14.43511693 -18.5 9.8125 C-17.26964254 5.90611506 -15.16532815 3.61139573 -12 1 C-8.29240268 -0.85379866 -4.04626515 -0.45923868 0 0 Z M-15 7 C-16.37733405 11.27902096 -16.53358097 14.70817239 -14.8125 18.875 C-11.60820629 22.63175814 -10.18812153 23.846694 -5.125 24.5 C-1.7837665 24.34386759 -0.6516179 23.80363918 2.4375 22.0625 C5.73518395 18.12136552 6.40632045 15.07900568 6 10 C4.47787572 6.31485701 2.56417575 3.83025241 -1 2 C-7.38411339 1.17624343 -10.66343324 1.81727387 -15 7 Z " fill="#D8D1A8" transform="translate(1100,249)"/>
<path d="M0 0 C3.85544798 1.99657127 5.59805092 3.39707638 8 7 C9.21321535 12.25726651 9.07655548 15.99738906 7 21 C2.22475963 25.53647835 -1.03846979 26.37141318 -7.45703125 26.26953125 C-11.31632739 25.86048143 -13.23532519 24.69724372 -16 22 C-18.47088274 18.02548399 -19.40879425 14.43511693 -18.5 9.8125 C-17.26964254 5.90611506 -15.16532815 3.61139573 -12 1 C-8.29240268 -0.85379866 -4.04626515 -0.45923868 0 0 Z M-15 7 C-16.37733405 11.27902096 -16.53358097 14.70817239 -14.8125 18.875 C-11.60820629 22.63175814 -10.18812153 23.846694 -5.125 24.5 C-1.7837665 24.34386759 -0.6516179 23.80363918 2.4375 22.0625 C5.73518395 18.12136552 6.40632045 15.07900568 6 10 C4.47787572 6.31485701 2.56417575 3.83025241 -1 2 C-7.38411339 1.17624343 -10.66343324 1.81727387 -15 7 Z " fill="#D8D1A8" transform="translate(959,249)"/>
<path d="M0 0 C3.85544798 1.99657127 5.59805092 3.39707638 8 7 C9.21321535 12.25726651 9.07655548 15.99738906 7 21 C2.22475963 25.53647835 -1.03846979 26.37141318 -7.45703125 26.26953125 C-11.31632739 25.86048143 -13.23532519 24.69724372 -16 22 C-18.47088274 18.02548399 -19.40879425 14.43511693 -18.5 9.8125 C-17.26964254 5.90611506 -15.16532815 3.61139573 -12 1 C-8.29240268 -0.85379866 -4.04626515 -0.45923868 0 0 Z M-15 7 C-16.37733405 11.27902096 -16.53358097 14.70817239 -14.8125 18.875 C-11.60820629 22.63175814 -10.18812153 23.846694 -5.125 24.5 C-1.7837665 24.34386759 -0.6516179 23.80363918 2.4375 22.0625 C5.73518395 18.12136552 6.40632045 15.07900568 6 10 C4.47787572 6.31485701 2.56417575 3.83025241 -1 2 C-7.38411339 1.17624343 -10.66343324 1.81727387 -15 7 Z " fill="#D8D1A8" transform="translate(505,249)"/>
<path d="M0 0 C3.125 1.5 3.125 1.5 5 3 C4.67 3.66 4.34 4.32 4 5 C3.34 4.67 2.68 4.34 2 4 C-3.02619729 2.3246009 -7.12546613 2.08267491 -11.9375 4.4375 C-14.86456793 8.07416016 -15.29634084 11.39025359 -15 16 C-13.43818681 19.670261 -12.34089404 20.7727373 -9 23 C-7.04785375 23.31478577 -7.04785375 23.31478577 -5 23.25 C-4.319375 23.25515625 -3.63875 23.2603125 -2.9375 23.265625 C-0.67583993 23.09917603 -0.67583993 23.09917603 2 21 C2.73606499 17.43230448 2.73606499 17.43230448 3 14 C0.03 14 -2.94 14 -6 14 C-6 13.34 -6 12.68 -6 12 C-2.04 12 1.92 12 6 12 C6.28047407 15.55267156 6.50268987 18.51395503 6 22 C2.72230461 25.62271596 -0.28981688 26.25808727 -5 26.5 C-9.71711603 26.27301096 -12.53286534 25.3825704 -16 22 C-18.47088274 18.02548399 -19.40879425 14.43511693 -18.5 9.8125 C-17.26964254 5.90611506 -15.16532815 3.61139573 -12 1 C-8.32349261 -0.8382537 -4.02203801 -0.37884188 0 0 Z " fill="#D8D1A8" transform="translate(996,249)"/>
<path d="M0 0 C1.88769531 0.10327148 1.88769531 0.10327148 4 1 C5.46386719 3.31665039 5.46386719 3.31665039 6.796875 6.34765625 C7.28027344 7.42724609 7.76367188 8.50683594 8.26171875 9.61914062 C8.75285156 10.75544922 9.24398438 11.89175781 9.75 13.0625 C10.25660156 14.20267578 10.76320313 15.34285156 11.28515625 16.51757812 C12.53672292 19.33950675 13.77424541 22.16678655 15 25 C14.01 25.33 13.02 25.66 12 26 C11.66355469 25.18144531 11.32710937 24.36289062 10.98046875 23.51953125 C9.15765248 20.5996092 9.15765248 20.5996092 5.42578125 20.51171875 C4.05383624 20.54485752 2.6823247 20.60436405 1.3125 20.6875 C0.61060547 20.71005859 -0.09128906 20.73261719 -0.81445312 20.75585938 C-2.5438833 20.81468353 -4.27221438 20.90436611 -6 21 C-6.99 23.475 -6.99 23.475 -8 26 C-8.99 26 -9.98 26 -11 26 C-9.17271177 19.98069759 -6.89266112 14.25685097 -4.375 8.5 C-4.06167725 7.78134766 -3.74835449 7.06269531 -3.42553711 6.32226562 C-1.13112942 1.13112942 -1.13112942 1.13112942 0 0 Z M1 3 C-0.00218061 5.3115773 -1.00183658 7.62418884 -2 9.9375 C-2.28617188 10.59685547 -2.57234375 11.25621094 -2.8671875 11.93554688 C-4.35501998 14.86578497 -4.35501998 14.86578497 -5 18 C-0.71 18 3.58 18 8 18 C6.72936448 14.18809343 5.51749676 10.73849288 3.875 7.125 C3.52179688 6.34382812 3.16859375 5.56265625 2.8046875 4.7578125 C2.53914063 4.17773438 2.27359375 3.59765625 2 3 C1.67 3 1.34 3 1 3 Z " fill="#D8D1A8" transform="translate(1023,249)"/>
<path d="M0 0 C1.88769531 0.10327148 1.88769531 0.10327148 4 1 C5.46386719 3.31665039 5.46386719 3.31665039 6.796875 6.34765625 C7.28027344 7.42724609 7.76367188 8.50683594 8.26171875 9.61914062 C8.75285156 10.75544922 9.24398437 11.89175781 9.75 13.0625 C10.25660156 14.20267578 10.76320313 15.34285156 11.28515625 16.51757812 C12.53672292 19.33950675 13.77424541 22.16678655 15 25 C14.01 25.33 13.02 25.66 12 26 C11.66355469 25.18144531 11.32710937 24.36289062 10.98046875 23.51953125 C9.15765248 20.5996092 9.15765248 20.5996092 5.42578125 20.51171875 C4.05383624 20.54485752 2.6823247 20.60436405 1.3125 20.6875 C0.61060547 20.71005859 -0.09128906 20.73261719 -0.81445312 20.75585938 C-2.5438833 20.81468353 -4.27221438 20.90436611 -6 21 C-6.99 23.475 -6.99 23.475 -8 26 C-8.99 26 -9.98 26 -11 26 C-9.17271177 19.98069759 -6.89266112 14.25685097 -4.375 8.5 C-4.06167725 7.78134766 -3.74835449 7.06269531 -3.42553711 6.32226562 C-1.13112942 1.13112942 -1.13112942 1.13112942 0 0 Z M1 3 C-0.00218061 5.3115773 -1.00183658 7.62418884 -2 9.9375 C-2.28617188 10.59685547 -2.57234375 11.25621094 -2.8671875 11.93554688 C-4.35501998 14.86578497 -4.35501998 14.86578497 -5 18 C-0.71 18 3.58 18 8 18 C6.72936448 14.18809343 5.51749676 10.73849288 3.875 7.125 C3.52179687 6.34382812 3.16859375 5.56265625 2.8046875 4.7578125 C2.53914062 4.17773438 2.27359375 3.59765625 2 3 C1.67 3 1.34 3 1 3 Z " fill="#D8D1A8" transform="translate(850,249)"/>
<path d="M0 0 C1.88769531 0.10327148 1.88769531 0.10327148 4 1 C5.46386719 3.31665039 5.46386719 3.31665039 6.796875 6.34765625 C7.28027344 7.42724609 7.76367188 8.50683594 8.26171875 9.61914062 C8.75285156 10.75544922 9.24398437 11.89175781 9.75 13.0625 C10.25660156 14.20267578 10.76320313 15.34285156 11.28515625 16.51757812 C12.53672292 19.33950675 13.77424541 22.16678655 15 25 C14.01 25.33 13.02 25.66 12 26 C11.66355469 25.18144531 11.32710937 24.36289062 10.98046875 23.51953125 C9.15765248 20.5996092 9.15765248 20.5996092 5.42578125 20.51171875 C4.05383624 20.54485752 2.6823247 20.60436405 1.3125 20.6875 C0.61060547 20.71005859 -0.09128906 20.73261719 -0.81445312 20.75585938 C-2.5438833 20.81468353 -4.27221438 20.90436611 -6 21 C-6.99 23.475 -6.99 23.475 -8 26 C-8.99 26 -9.98 26 -11 26 C-9.17271177 19.98069759 -6.89266112 14.25685097 -4.375 8.5 C-4.06167725 7.78134766 -3.74835449 7.06269531 -3.42553711 6.32226562 C-1.13112942 1.13112942 -1.13112942 1.13112942 0 0 Z M1 3 C-0.00218061 5.3115773 -1.00183658 7.62418884 -2 9.9375 C-2.28617188 10.59685547 -2.57234375 11.25621094 -2.8671875 11.93554688 C-4.35501998 14.86578497 -4.35501998 14.86578497 -5 18 C-0.71 18 3.58 18 8 18 C6.72936448 14.18809343 5.51749676 10.73849288 3.875 7.125 C3.52179687 6.34382812 3.16859375 5.56265625 2.8046875 4.7578125 C2.53914062 4.17773438 2.27359375 3.59765625 2 3 C1.67 3 1.34 3 1 3 Z " fill="#D8D1A8" transform="translate(650,249)"/>
<path d="M0 0 C6.27 0 12.54 0 19 0 C19 0.66 19 1.32 19 2 C13.72 2 8.44 2 3 2 C3 5.3 3 8.6 3 12 C7.95 12 12.9 12 18 12 C18 12.66 18 13.32 18 14 C13.05 14 8.1 14 3 14 C3 17.3 3 20.6 3 24 C8.28 24 13.56 24 19 24 C19 24.66 19 25.32 19 26 C12.73 26 6.46 26 0 26 C0 17.42 0 8.84 0 0 Z " fill="#D8D1A8" transform="translate(794,249)"/>
<path d="M0 0 C6.27 0 12.54 0 19 0 C19 0.66 19 1.32 19 2 C13.72 2 8.44 2 3 2 C3 5.3 3 8.6 3 12 C7.95 12 12.9 12 18 12 C18 12.66 18 13.32 18 14 C13.05 14 8.1 14 3 14 C3 17.3 3 20.6 3 24 C8.28 24 13.56 24 19 24 C19 24.66 19 25.32 19 26 C12.73 26 6.46 26 0 26 C0 17.42 0 8.84 0 0 Z " fill="#D8D1A8" transform="translate(710,249)"/>
<path d="M0 0 C6.27 0 12.54 0 19 0 C19 0.66 19 1.32 19 2 C13.72 2 8.44 2 3 2 C3 5.3 3 8.6 3 12 C7.95 12 12.9 12 18 12 C18 12.66 18 13.32 18 14 C13.05 14 8.1 14 3 14 C3 17.3 3 20.6 3 24 C8.28 24 13.56 24 19 24 C19 24.66 19 25.32 19 26 C12.73 26 6.46 26 0 26 C0 17.42 0 8.84 0 0 Z " fill="#D8D1A8" transform="translate(576,249)"/>
<path d="M0 0 C3.125 1.5 3.125 1.5 5 3 C4.67 3.66 4.34 4.32 4 5 C3.34 4.67 2.68 4.34 2 4 C-2.17814982 2.60728339 -6.92924187 1.96462094 -11 4 C-11 5.65 -11 7.3 -11 9 C-9.94039062 9.32613281 -8.88078125 9.65226562 -7.7890625 9.98828125 C-6.4008639 10.4291281 -5.01285263 10.87056518 -3.625 11.3125 C-2.92632813 11.52583984 -2.22765625 11.73917969 -1.5078125 11.95898438 C3.7734375 13.66015625 3.7734375 13.66015625 6 17 C5.86020013 20.35519697 5.74238927 22.28291946 3.28125 24.66015625 C-0.85759226 27.09101737 -5.3556528 26.63667097 -10 26 C-12.46066399 24.91730784 -13.94308666 23.77895207 -16 22 C-15.67 21.34 -15.34 20.68 -15 20 C-13 21 -11 22 -9 23 C-7.50350638 23.12005453 -6.00125207 23.17531451 -4.5 23.1875 C-3.7059375 23.20167969 -2.911875 23.21585937 -2.09375 23.23046875 C0.22033317 23.19666303 0.22033317 23.19666303 2 21 C1.67958603 18.39719432 1.67958603 18.39719432 1 16 C0.09636719 15.74605469 -0.80726562 15.49210937 -1.73828125 15.23046875 C-3.50751953 14.71419922 -3.50751953 14.71419922 -5.3125 14.1875 C-6.48425781 13.85105469 -7.65601563 13.51460938 -8.86328125 13.16796875 C-11.77597165 12.08341778 -13.18956254 11.46473592 -15 9 C-15.5 6.5625 -15.5 6.5625 -15 4 C-10.97372954 -0.96573357 -5.92456167 -0.84497847 0 0 Z " fill="#D8D1A8" transform="translate(1134,249)"/>
<path d="M0 0 C3.125 1.5 3.125 1.5 5 3 C4.67 3.66 4.34 4.32 4 5 C3.34 4.67 2.68 4.34 2 4 C-2.17814982 2.60728339 -6.92924187 1.96462094 -11 4 C-11 5.65 -11 7.3 -11 9 C-9.94039063 9.32613281 -8.88078125 9.65226562 -7.7890625 9.98828125 C-6.4008639 10.4291281 -5.01285263 10.87056518 -3.625 11.3125 C-2.92632812 11.52583984 -2.22765625 11.73917969 -1.5078125 11.95898438 C3.7734375 13.66015625 3.7734375 13.66015625 6 17 C5.86020013 20.35519697 5.74238927 22.28291946 3.28125 24.66015625 C-0.85759226 27.09101737 -5.3556528 26.63667097 -10 26 C-12.46066399 24.91730784 -13.94308666 23.77895207 -16 22 C-15.67 21.34 -15.34 20.68 -15 20 C-13 21 -11 22 -9 23 C-7.50350638 23.12005453 -6.00125207 23.17531451 -4.5 23.1875 C-3.7059375 23.20167969 -2.911875 23.21585937 -2.09375 23.23046875 C0.22033317 23.19666303 0.22033317 23.19666303 2 21 C1.67958603 18.39719432 1.67958603 18.39719432 1 16 C0.09636719 15.74605469 -0.80726563 15.49210937 -1.73828125 15.23046875 C-3.50751953 14.71419922 -3.50751953 14.71419922 -5.3125 14.1875 C-6.48425781 13.85105469 -7.65601563 13.51460938 -8.86328125 13.16796875 C-11.77597165 12.08341778 -13.18956254 11.46473592 -15 9 C-15.5 6.5625 -15.5 6.5625 -15 4 C-10.97372954 -0.96573357 -5.92456167 -0.84497847 0 0 Z " fill="#D8D1A8" transform="translate(471,249)"/>
<path d="M0 0 C0.99 0 1.98 0 3 0 C3.23710693 0.60062256 3.47421387 1.20124512 3.71850586 1.82006836 C4.78882572 4.5269469 5.86310775 7.23223541 6.9375 9.9375 C7.31068359 10.88302734 7.68386719 11.82855469 8.06835938 12.80273438 C8.42607422 13.70185547 8.78378906 14.60097656 9.15234375 15.52734375 C9.6472229 16.77632446 9.6472229 16.77632446 10.15209961 18.05053711 C10.84347269 19.96560634 10.84347269 19.96560634 12 21 C12.22139648 20.39937744 12.44279297 19.79875488 12.67089844 19.17993164 C13.68103603 16.467749 14.71510842 13.76532855 15.75 11.0625 C16.09804688 10.11697266 16.44609375 9.17144531 16.8046875 8.19726562 C17.15273438 7.29814453 17.50078125 6.39902344 17.859375 5.47265625 C18.17358398 4.64000244 18.48779297 3.80734863 18.81152344 2.94946289 C20 1 20 1 22.13378906 0.22045898 C22.74963867 0.14770752 23.36548828 0.07495605 24 0 C22.44187145 4.15575144 20.84940147 8.29747626 19.25 12.4375 C18.8065625 13.62150391 18.363125 14.80550781 17.90625 16.02539062 C17.46796875 17.15009766 17.0296875 18.27480469 16.578125 19.43359375 C16.18012695 20.47572021 15.78212891 21.51784668 15.37207031 22.59155273 C14 25 14 25 11.83886719 25.84790039 C10.92862793 25.9231897 10.92862793 25.9231897 10 26 C8.32760079 22.04406422 6.66305618 18.0848716 5 14.125 C4.52304687 12.99707031 4.04609375 11.86914062 3.5546875 10.70703125 C2.87792969 9.09248047 2.87792969 9.09248047 2.1875 7.4453125 C1.76855469 6.45031738 1.34960938 5.45532227 0.91796875 4.43017578 C0 2 0 2 0 0 Z " fill="#D8D1A8" transform="translate(908,249)"/>
<path d="M0 0 C3.125 1.375 3.125 1.375 5 3 C5 3.66 5 4.32 5 5 C2.83125748 4.49396008 1.00032373 4.00016187 -1 3 C-5.41713859 2.63793946 -7.94898583 2.48567391 -11.9375 4.4375 C-14.86456793 8.07416016 -15.29634084 11.39025359 -15 16 C-13.43818681 19.670261 -12.34089404 20.7727373 -9 23 C-4.04254494 23.31983581 -0.51961078 23.25980539 4 21 C4 21.99 4 22.98 4 24 C-0.58151213 26.63911989 -4.83170486 26.63685153 -10 26 C-14.14613629 24.19077689 -16.15972591 22.29700969 -18 18.25 C-19.39334292 13.79627888 -19.00971503 10.19886891 -17 6 C-11.7605616 -0.15634013 -7.80095039 -0.71029062 0 0 Z " fill="#D8D1A8" transform="translate(543,249)"/>
<path d="M0 0 C0.99 0 1.98 0 3 0 C3 8.58 3 17.16 3 26 C2.01 26 1.02 26 0 26 C0 17.42 0 8.84 0 0 Z " fill="#D8D1A8" transform="translate(560,249)"/>
</svg>
